<svg width="448" height="448" viewBox="0 0 448 448" fill="none" xmlns="http://www.w3.org/2000/svg">
<path d="M400 448H48C21.49 448 0 426.51 0 400V48C0 21.49 21.49 0 48 0H400C426.51 0 448 21.49 448 48V400C448 426.51 426.51 448 400 448ZM195.314 349.941L379.314 165.941C385.562 159.693 385.562 149.562 379.314 143.314L356.687 120.687C350.439 114.439 340.308 114.438 334.059 120.687L184 270.745L113.941 200.686C107.693 194.438 97.562 194.438 91.313 200.686L68.686 223.313C62.438 229.561 62.438 239.692 68.686 245.94L172.686 349.94C178.935 356.19 189.065 356.19 195.314 349.941V349.941Z" fill="#02AF14"/>
</svg>
